<svg width="725" height="1024" viewBox="0 0 725 1024" fill="none" xmlns="http://www.w3.org/2000/svg">
<g clip-path="url(#clip0_7448_72816)">
<rect width="725" height="1024" fill="#0E369C"/>
<g opacity="0.54">
<path d="M727.326 290.67L718.768 290.67C670.206 290.67 630.866 251.366 630.866 202.85L630.866 194.366L727.326 194.366L727.326 290.67Z" fill="#668EF4"/>
<path d="M530.094 -199L530.094 78.5771C530.094 88.1213 537.856 95.876 547.409 95.876L611.428 95.876C620.982 95.876 628.743 88.1212 628.743 78.5771L628.743 -199L530.094 -199Z" fill="#3C6ADF"/>
<path d="M530.094 -2.61488L530.094 46.6305C530.094 73.805 552.186 95.876 579.386 95.876C606.585 95.876 628.677 73.805 628.677 46.6305L628.677 -2.61489L530.094 -2.61488Z" fill="#1D4ABA"/>
<path d="M554.773 -199L554.773 46.6302C554.773 60.2174 565.785 71.2197 579.452 71.2197C593.052 71.2197 604.131 60.2174 604.131 46.6302L604.131 -199L554.773 -199Z" fill="#668EF4"/>
<path d="M554.773 -2.61527L554.773 46.6302C554.773 60.2174 565.785 71.2197 579.452 71.2197C593.052 71.2197 604.131 60.2174 604.131 46.6302L604.131 -2.61527L554.773 -2.61527Z" fill="#3C6ADF"/>
<path d="M628.744 -2.61586L628.744 95.875L727.327 95.875L727.327 -2.61586L628.744 -2.61586Z" fill="#3C6ADF"/>
<path d="M628.744 46.6296C655.944 46.6296 678.036 68.7006 678.036 95.875C678.036 68.7006 700.127 46.6296 727.327 46.6296C700.127 46.6296 678.036 24.5586 678.035 -2.61586C678.036 24.6249 655.944 46.6296 628.744 46.6296Z" fill="#0E369C"/>
<path d="M649.244 95.8752L632.857 112.246L628.744 116.355L628.744 101.045L633.853 95.8752L649.244 95.8752Z" fill="#668EF4"/>
<path d="M628.744 133.522L644.335 117.946L657.735 104.624L666.426 95.8751L681.751 95.8751L665.365 112.246L652.03 125.634L632.857 144.723L628.744 148.898L628.744 133.522Z" fill="#668EF4"/>
<path d="M709.415 182.966L722.816 169.578L727.327 165.071L727.327 180.381L717.111 190.655L713.329 194.366L698.005 194.366L709.415 182.966Z" fill="#668EF4"/>
<path d="M676.908 182.966L690.243 169.578L709.416 150.489L722.816 137.101L727.328 132.594L727.328 147.905L717.111 158.111L697.939 177.266L684.538 190.655L680.756 194.366L665.431 194.366L676.908 182.966Z" fill="#668EF4"/>
<path d="M644.335 182.966L657.736 169.578L676.908 150.489L690.243 137.101L709.416 117.946L722.816 104.624L727.328 100.051L727.328 115.361L717.111 125.635L697.939 144.723L684.538 158.111L665.365 177.266L652.031 190.655L648.249 194.366L632.924 194.366L644.335 182.966Z" fill="#668EF4"/>
<path d="M628.744 166.065L644.335 150.49L657.735 137.101L676.908 117.947L690.242 104.625L698.999 95.8757L714.324 95.8757L697.938 112.247L684.537 125.635L665.365 144.724L652.03 158.112L632.857 177.267L628.744 181.376L628.744 166.065Z" fill="#668EF4"/>
<path d="M653.356 145.121C653.356 158.709 664.369 169.711 678.035 169.711C691.635 169.711 702.714 158.709 702.714 145.121C702.714 131.534 691.701 120.532 678.035 120.532C664.435 120.532 653.356 131.534 653.356 145.121Z" fill="#1D4ABA"/>
<path d="M628.691 95.9394L530.108 95.9395L530.108 194.497L628.691 194.497L628.691 95.9394Z" fill="#3C6ADF"/>
<path d="M704.239 380.346L704.239 380.279L659.26 335.408L659.26 380.346L704.239 380.346Z" fill="#668EF4"/>
<path d="M601.743 167.656L601.743 122.785L556.763 122.785L601.743 167.656Z" fill="#668EF4"/>
<path d="M431.578 -3.60902L431.578 94.8154L530.161 94.8154L530.161 -3.60902L431.578 -3.60902Z" fill="#0E369C"/>
<path d="M480.869 45.6364C480.869 18.4389 458.8 -3.60903 431.578 -3.60903C404.355 -3.60903 382.286 18.4389 382.286 45.6364C382.286 72.8339 404.355 94.8818 431.578 94.8818C458.8 94.8818 480.869 72.8339 480.869 45.6364Z" fill="#1D4ABA"/>
<path d="M579.452 45.6364C579.452 18.4389 557.384 -3.60903 530.161 -3.60903C502.938 -3.60903 480.869 18.4389 480.869 45.6364C480.869 72.8339 502.938 94.8818 530.161 94.8818C557.384 94.8818 579.452 72.8339 579.452 45.6364Z" fill="#668EF4"/>
<path d="M530.094 194.499L530.094 292.261L628.08 292.261L530.094 194.499Z" fill="#1D4ABA"/>
</g>
<g opacity="0.54">
<path d="M196.764 1056.14L227.111 1056.14C227.111 1039.36 240.69 1025.69 257.458 1025.69C274.227 1025.69 287.806 1039.28 287.806 1056.14L318.153 1056.14C318.153 1022.57 290.914 995.31 257.377 995.31C223.921 995.228 196.764 1022.49 196.764 1056.14Z" fill="#1D4ABA"/>
<path d="M424 994.246L81.4286 994.246C69.6496 994.246 60.0791 984.667 60.0791 972.877L60.0791 893.868C60.0791 882.078 69.6496 872.498 81.4286 872.498L424 872.498L424 994.246Z" fill="#3C6ADF"/>
<path d="M181.632 994.246L120.855 994.246C87.318 994.246 60.0791 966.982 60.0791 933.413C60.0791 899.844 87.318 872.58 120.855 872.58L181.632 872.58L181.632 994.246Z" fill="#1D4ABA"/>
<path d="M424 963.789L120.855 963.789C104.086 963.789 90.5078 950.198 90.5078 933.332C90.5078 916.547 104.086 902.874 120.855 902.874L424 902.874L424 963.789Z" fill="#668EF4"/>
<path d="M181.631 963.789L120.855 963.789C104.086 963.789 90.5078 950.198 90.5078 933.332C90.5078 916.547 104.086 902.874 120.855 902.874L181.631 902.874L181.631 963.789Z" fill="#3C6ADF"/>
<path d="M181.632 872.497L60.0791 872.497L60.0791 750.831L181.632 750.831L181.632 872.497Z" fill="#3C6ADF"/>
<path d="M120.855 872.497C120.855 838.928 93.6164 811.664 60.0791 811.664C93.6164 811.664 120.855 784.4 120.855 750.831C120.855 784.4 148.094 811.664 181.632 811.664C148.012 811.664 120.855 838.928 120.855 872.497Z" fill="#668EF4"/>
<path d="M60.079 847.197L39.8747 867.42L34.8032 872.496L53.6987 872.496L60.079 866.192L60.079 847.197Z" fill="#668EF4"/>
<path d="M13.6172 872.496L32.8398 853.256L49.2813 836.717L60.0787 825.991L60.0787 807.078L39.8745 827.301L23.3512 843.758L-0.206763 867.42L-5.36011 872.496L13.6172 872.496Z" fill="#668EF4"/>
<path d="M-47.4042 813.054L-30.881 796.598L-7.32298 772.936L9.20027 756.397L14.7626 750.83L-4.13292 750.83L-16.7298 763.438L-40.3696 787.1L-56.8929 803.639L-61.4736 808.306L-61.4736 827.219L-47.4042 813.054Z" fill="#668EF4"/>
<path d="M-47.4042 853.255L-30.881 836.717L-7.323 813.055L9.20025 796.598L32.84 772.936L49.2815 756.398L54.9256 750.83L36.0302 750.83L23.3514 763.439L-0.20657 787.101L-16.7298 803.639L-40.3696 827.301L-56.8929 843.758L-61.4736 848.425L-61.4736 867.338L-47.4042 853.255Z" fill="#668EF4"/>
<path d="M-26.5456 872.496L-7.32297 853.256L9.2003 836.717L32.8401 813.055L49.2816 796.598L60.0789 785.791L60.079 766.878L39.8747 787.101L23.3515 803.639L-0.206531 827.301L-16.7298 843.758L-40.3696 867.42L-45.4412 872.496L-26.5456 872.496Z" fill="#668EF4"/>
<path d="M-0.69717 842.123C-17.4659 842.123 -31.0444 828.532 -31.0444 811.666C-31.0444 794.881 -17.4659 781.208 -0.697165 781.208C16.0715 781.208 29.6501 794.8 29.6501 811.666C29.6501 828.45 16.0715 842.123 -0.69717 842.123Z" fill="#1D4ABA"/>
<path d="M60.001 872.562L60.001 994.229L-61.6333 994.229L-61.6333 872.562L60.001 872.562Z" fill="#3C6ADF"/>
<path d="M-28.5085 905.822L26.8688 905.822L26.8688 961.333L-28.5085 905.822Z" fill="#668EF4"/>
<path d="M182.858 1115.83L61.3875 1115.83L61.3875 994.165L182.858 994.165L182.858 1115.83Z" fill="#0E369C"/>
<path d="M122.082 933.332C155.648 933.332 182.858 960.568 182.858 994.165C182.858 1027.76 155.648 1055 122.082 1055C88.5161 1055 61.3057 1027.76 61.3057 994.165C61.3057 960.568 88.5161 933.332 122.082 933.332Z" fill="#668EF4"/>
<path d="M423.918 872.499L302.447 872.499L302.447 750.833L423.918 750.833L423.918 872.499Z" fill="#0E369C"/>
<path d="M363.224 811.666C396.789 811.666 424 838.902 424 872.499C424 906.096 396.789 933.332 363.224 933.332C329.658 933.332 302.447 906.096 302.447 872.499C302.447 838.902 329.658 811.666 363.224 811.666Z" fill="#1D4ABA"/>
<path d="M363.224 690C396.789 690 424 717.236 424 750.833C424 784.43 396.789 811.666 363.224 811.666C329.658 811.666 302.447 784.43 302.447 750.833C302.447 717.236 329.658 690 363.224 690Z" fill="#668EF4"/>
</g>
<path d="M91.2009 464.406C91.2009 464.406 123.995 473.114 149.072 496.19C174.172 519.289 176.187 553.915 218.279 558.384C260.371 562.852 339.884 526.737 361.159 498.803C382.434 470.868 378.174 402.373 388.801 382.55C399.404 362.728 393.495 351.408 383.762 349.987C374.029 348.589 363.243 348.543 347.144 351.889C331.044 355.235 306.311 374.094 296.898 385.552C287.486 397.01 262.341 424.922 230.279 431.224C198.241 437.503 117.629 438.625 106.705 447.013C95.804 455.377 91.2009 464.406 91.2009 464.406Z" fill="#FFB300"/>
<path d="M383.573 350.145C383.573 350.145 351.482 342.926 325.818 356.699C300.154 370.472 277.509 404.985 252.051 413.602C226.592 422.242 184.528 409.064 154.633 413.602C124.714 418.14 93.1945 437.871 87.1101 448.298C81.0487 458.726 77.0001 484.416 77.0001 484.416C77.0001 484.416 117.623 449.788 167.144 446.419C194.753 444.563 207.173 450.109 235.467 441.927C263.762 433.746 299.33 386.835 311.064 375.651C322.798 364.514 350.955 346.936 383.573 350.145Z" fill="#FF7A00"/>
<path d="M432.625 362.691C432.625 362.691 549.519 455.658 556.487 489.893C563.455 524.129 552.106 537.459 531.598 541.339C511.091 545.219 484.17 496.228 474.51 483.717C464.824 471.152 432.625 362.691 432.625 362.691Z" fill="#001A5B"/>
<path d="M408.66 259.774C408.66 259.774 412.223 268.749 413.042 274.714C413.833 280.68 414.176 282.422 411.115 281.762C408.08 281.102 401.429 267.746 402.3 263.654C403.197 259.589 406.549 257.583 408.66 259.774Z" fill="#171718"/>
<path d="M352.918 269.332C352.918 269.332 346.426 276.142 347.429 286.595C348.432 297.048 373.346 324.5 380.077 322.995C386.807 321.517 370.892 261.07 352.918 269.332Z" fill="#171718"/>
<path d="M325.47 654.579L408.766 621.373L499.874 654.579L499.082 1100.14C499.082 1100.14 489.871 1104.42 471.766 1104.44C455.059 1104.47 443.657 1100.14 443.657 1100.14L415.786 705.233L309.581 1100.14C309.581 1100.14 299.525 1104.44 282.265 1104.44C265.32 1104.44 258.511 1100.14 258.511 1100.14C258.511 1100.14 317.42 709.324 325.47 654.579Z" fill="white"/>
<path d="M328.532 520.01C329.535 460.408 329.746 352.872 401.35 349.994C472.98 347.117 495.335 541.919 495.335 541.919L507.317 665.188L435.449 663.525C430.83 663.446 426.872 660.199 425.895 655.685L422.939 642.171L418.215 655.527C416.763 659.645 412.804 662.337 408.423 662.179L317.235 659.381C321.511 592.045 328.241 537.326 328.532 520.01Z" fill="#001A5B"/>
<path d="M414.81 353.585C414.81 353.585 411.695 344.452 399.898 344.954C388.1 345.455 380.842 348.015 378.176 357.412C375.511 366.783 376.223 370.584 376.223 370.584L417.291 365.991C417.291 365.991 419.323 358.363 414.81 353.585Z" fill="#2E2E47"/>
<path d="M407.103 351.711C407.103 351.711 399.766 348.2 391.03 351.817C382.294 355.433 381.871 362.243 385.223 374.412C388.549 386.606 413.385 489.735 418.874 494.698C422.833 498.314 423.071 426.332 416.235 382.885C413.596 366.361 413.648 354.535 407.103 351.711Z" fill="white"/>
<path d="M399.846 364.91C399.846 364.91 398.024 361.742 398.447 360.396C398.869 359.05 404.042 356.648 406.153 359.367C406.153 359.367 406.496 362.402 405.81 363.775C405.81 363.775 416.103 411.235 421.013 437.076C422.332 468.962 421.329 496.995 418.822 494.698C416.077 492.217 408.529 465.214 401.218 437.287L399.846 364.91Z" fill="#FFB300"/>
<path d="M378.704 313.595C378.704 313.595 382.214 326.239 383.243 338.909C383.666 344.083 384.642 350.233 383.771 354.087C382.663 359.023 388.997 363.114 395.807 364.012C397.865 364.276 398.261 359.656 400.636 359.26C403.698 358.732 407.525 362.322 408.792 361.029C411.669 358.046 410.534 353.638 409.109 350.523C407.076 346.089 402.062 324.101 400.953 322.227C399.818 320.353 380.974 310.27 378.704 313.595Z" fill="#FFA982"/>
<path d="M409.822 349.758L403.514 357.571C403.514 357.571 382.954 350.312 382.531 351.553C382.109 352.82 382.135 359.34 381.845 361.161C381.581 363.009 396.889 366.994 397.549 366.519C398.182 366.044 401.429 360.026 402.748 360.316C404.068 360.607 411.616 364.434 412.197 364.117C412.778 363.8 412.857 358.548 412.54 355.618C412.223 352.688 409.822 349.758 409.822 349.758Z" fill="white"/>
<path d="M422.174 640.772C422.543 640.772 422.834 640.481 422.807 640.112L420.3 497.416C420.3 497.073 420.01 496.782 419.64 496.782C419.297 496.782 419.007 497.073 419.007 497.442L421.514 640.138C421.54 640.481 421.831 640.772 422.174 640.772Z" fill="white"/>
<path d="M407.842 608.175C407.842 610.154 408.449 611.765 409.188 611.765C409.927 611.765 410.534 610.154 410.534 608.175C410.534 606.195 409.927 604.585 409.188 604.585C408.449 604.585 407.842 606.195 407.842 608.175Z" fill="white"/>
<path d="M407.578 346.116C406.759 343.397 405.836 339.912 404.938 336.455C398.103 335.953 388.628 335.108 388.628 335.108C388.628 335.108 390.871 344.004 398.789 345.799C401.877 346.511 404.965 346.459 407.578 346.116Z" fill="#F2836D"/>
<path d="M412.197 492.876C412.329 492.876 412.461 492.823 412.566 492.744C412.857 492.532 412.909 492.136 412.698 491.846C403.936 479.994 362.842 415.509 364.214 410.811C364.373 410.23 364.637 410.151 364.742 410.124C366.194 409.702 369.915 412.949 372.951 415.562C376.012 418.202 378.651 420.498 380.42 420.788C381.106 420.894 381.423 420.577 381.555 420.366C382.162 419.416 381.106 417.726 376.698 411.523C372.159 405.109 365.297 395.422 366.062 390.987C367.408 383.121 375.88 360.949 375.959 360.711C376.091 360.368 375.933 359.999 375.59 359.893C375.273 359.761 374.877 359.919 374.772 360.263C374.429 361.186 366.168 382.778 364.821 390.776C363.977 395.712 370.47 404.898 375.695 412.262C377.675 415.06 379.865 418.175 380.367 419.416C378.836 418.888 376.302 416.697 373.848 414.585C370.1 411.339 366.537 408.25 364.452 408.884C363.977 409.016 363.37 409.412 363.053 410.441C361.39 416.222 404.728 483.109 411.748 492.585C411.801 492.77 412.012 492.876 412.197 492.876Z" fill="white"/>
<path d="M265.557 1090.43C265.689 1090.43 265.821 1090.37 265.953 1090.29C266.349 1089.98 266.851 1089.61 281.024 1005.77C289.073 958.129 298.839 899.319 306.704 852.097C313.487 811.341 318.845 779.138 319.795 773.912C322.856 756.992 334.153 664.132 334.285 663.208C334.337 662.865 334.073 662.521 333.73 662.495C333.361 662.442 333.044 662.706 333.018 663.049C332.912 663.973 321.616 756.808 318.554 773.674C317.604 778.927 312.246 811.104 305.463 851.886C290.921 939.23 266.639 1085.23 265.056 1089.45C264.924 1089.66 264.924 1089.95 265.082 1090.19C265.161 1090.35 265.346 1090.43 265.557 1090.43Z" fill="#2E2E47"/>
<path d="M424.391 492.77C424.681 492.77 424.919 492.586 424.998 492.295C425.051 492.137 429.617 476.035 432.23 462.204C434.658 449.27 442.629 400.121 441.837 397.507C441.678 396.98 441.256 396.9 441.124 396.9C440.28 396.848 439.805 397.719 436.875 404.45C435.08 408.594 431.728 416.249 430.435 416.776C430.409 416.75 430.382 416.697 430.356 416.645C429.089 413.635 432.203 405.585 434.711 399.144C435.846 396.188 436.928 393.416 437.561 391.225C437.667 390.882 437.931 389.985 419.904 356.356C419.746 356.04 419.35 355.934 419.033 356.092C418.717 356.251 418.611 356.647 418.769 356.963C425.579 369.66 435.74 388.982 436.294 390.988C435.661 393.099 434.632 395.792 433.523 398.669C430.673 406.033 427.717 413.635 429.195 417.146C429.538 417.964 430.092 418.096 430.382 418.096C432.071 418.096 434.025 414.216 438.063 404.978C438.96 402.945 439.91 400.728 440.596 399.355C440.016 407.802 433.655 447.633 430.963 461.966C428.376 475.745 423.81 491.794 423.758 491.952C423.652 492.295 423.863 492.638 424.206 492.744C424.286 492.77 424.338 492.77 424.391 492.77Z" fill="white"/>
<path d="M407.895 266.716C407.895 266.716 411.352 275.743 414.467 282.025C415.549 284.19 417.264 287.146 417.871 288.36C420.194 293.032 423.467 295.698 426.027 303.063C428.587 310.427 431.701 325.526 418.663 331.755C405.625 337.985 390.08 336.269 384.405 329.908C378.731 323.546 374.112 316.129 374.112 316.129C374.112 316.129 370.1 318.135 365.877 313.568C361.655 309.002 356.561 302.746 361.127 300.186C365.693 297.625 367.672 299.869 368.675 299.077C369.678 298.285 365.112 283.451 370.575 279.333C376.039 275.242 401.561 261.252 407.895 266.716Z" fill="#FFA982"/>
<path d="M418.874 300.95C422.253 299.63 417.212 291.395 416.816 288.676C416.42 285.957 424.232 297.017 424.813 299.366C425.394 301.716 432.335 315.31 430.065 321.909C427.769 328.534 419.798 335.661 408.555 338.934C397.311 342.207 392.086 339.145 390.845 338.142C389.605 337.139 384.511 330.091 380.921 324.099C376.672 316.999 371.895 309.423 372.555 308.156C373.215 306.863 379.945 316.154 384.801 318.055C389.658 319.955 397.734 303.88 412.039 301.082C416.948 300.132 417.476 301.505 418.874 300.95Z" fill="#171718"/>
<path d="M419.877 303.169C419.877 303.169 419.27 301.374 414.599 303.485C409.927 305.597 409.531 307.022 405.44 308.369C401.349 309.715 398.895 309.266 398.129 311.483C397.39 313.701 400.399 314.598 401.323 315.971C402.273 317.343 406.285 320.247 408.396 318.716C410.508 317.185 407.974 316.129 409.531 314.862C411.062 313.595 414.308 310.929 416.288 311.299C418.294 311.668 416.868 313.199 419.429 312.83C422.041 312.434 421.329 307.366 419.877 303.169Z" fill="#FFA982"/>
<path d="M409.11 296.387C409.11 296.387 413.016 300.61 411.67 302.247C410.324 303.883 407.79 305.361 406.101 304.807C404.412 304.253 402.485 299.924 403.884 297.416C405.256 294.935 407.79 294.724 409.11 296.387Z" fill="#FFA982"/>
<path d="M406.1 305.518C406.1 305.518 406.126 305.518 406.1 305.518C411.431 305.412 412.249 303.564 412.698 301.505C412.962 300.238 411.616 298.813 409.742 296.886C407.974 295.038 405.757 292.742 404.728 290.208L404.675 290.076C403.408 286.935 401.983 283.345 402.722 281.524C403.223 280.283 407.552 278.541 410.508 277.723C410.851 277.617 411.035 277.274 410.956 276.931C410.851 276.588 410.508 276.403 410.164 276.482C408.871 276.852 402.431 278.779 401.534 281.049C400.637 283.371 402.088 287.014 403.487 290.551L403.54 290.683C404.648 293.455 406.945 295.83 408.818 297.784C410.112 299.13 411.563 300.634 411.431 301.241C411.115 302.667 410.824 304.145 406.074 304.224C405.73 304.224 405.44 304.515 405.44 304.884C405.467 305.227 405.757 305.518 406.1 305.518Z" fill="#2E2E47"/>
<path d="M380.05 292.029C380.208 292.029 380.367 291.976 380.499 291.844C386.358 286.38 391.61 286.697 391.663 286.697C392.006 286.724 392.323 286.46 392.349 286.117C392.375 285.773 392.111 285.457 391.768 285.43C391.531 285.404 385.936 285.034 379.628 290.921C379.364 291.158 379.364 291.58 379.601 291.818C379.707 291.95 379.892 292.029 380.05 292.029Z" fill="#2E2E47"/>
<path d="M386.068 297.655C386.305 297.655 386.516 297.523 386.648 297.311C386.754 297.1 389.472 292.191 394.144 293.669C394.487 293.774 394.856 293.59 394.962 293.246C395.068 292.903 394.883 292.534 394.54 292.428C388.839 290.607 385.566 296.625 385.54 296.678C385.381 296.995 385.487 297.391 385.804 297.549C385.856 297.655 385.962 297.655 386.068 297.655Z" fill="#2E2E47"/>
<path d="M389.578 294.38C389.578 294.38 390.053 297.415 391.821 297.679C393.589 297.97 393.959 296.65 393.959 295.62C393.959 294.591 393.141 292.453 392.164 292.585C391.214 292.77 389.63 293.773 389.578 294.38Z" fill="#2E2E47"/>
<path d="M406.1 288.259C406.338 288.259 406.549 288.127 406.681 287.916C406.76 287.758 408.792 283.904 412.725 285.092C413.068 285.197 413.411 285.012 413.517 284.669C413.622 284.326 413.437 283.983 413.094 283.877C409.135 282.663 406.417 285.62 405.546 287.362C405.388 287.678 405.52 288.074 405.836 288.233C405.915 288.233 405.995 288.259 406.1 288.259Z" fill="#2E2E47"/>
<path d="M409.162 285.197C409.162 285.197 409.162 287.942 410.561 288.259C411.96 288.576 412.778 287.441 412.751 286.543C412.725 285.646 411.986 283.745 411.247 283.851C410.482 283.93 409.188 284.643 409.162 285.197Z" fill="#2E2E47"/>
<path d="M411.563 292.665C412.012 294.222 414.757 294.776 417.686 293.932C420.616 293.087 422.648 291.134 422.2 289.576C421.751 288.019 419.006 287.465 416.076 288.309C413.147 289.154 411.115 291.107 411.563 292.665Z" fill="#F2836D"/>
<path d="M397.1 267.614C397.1 267.614 404.781 265.555 408.713 268.801C411.273 270.913 410.27 255.683 402.748 252.753C395.226 249.823 392.64 251.961 391.901 255.498C390.977 259.668 395.147 267.059 397.1 267.614Z" fill="#171718"/>
<path d="M387.018 305.042C387.731 306.494 390.555 306.546 393.273 305.174C395.992 303.801 397.628 301.531 396.916 300.079C396.203 298.628 393.379 298.575 390.661 299.947C387.916 301.32 386.279 303.59 387.018 305.042Z" fill="#F2836D"/>
<path d="M400.98 262.994C400.98 262.994 400.294 266.479 396.151 270.28C391.981 274.054 385.435 276.087 380.315 277.011C375.195 277.908 370.18 278.383 369.045 282.263C367.91 286.144 368.834 296.385 370.259 300.266C371.711 304.146 377.781 314.466 375.934 314.018C374.086 313.569 366.01 299.764 364.796 298.576C363.582 297.388 350.227 284.798 347.456 279.703C344.684 274.582 350.174 266.822 355.453 266.03C355.453 266.03 349.725 258.217 360.045 249.269C373.268 237.734 397.233 242.01 400.98 262.994Z" fill="#171718"/>
<path d="M381.185 712.805C381.264 712.805 381.317 712.805 381.396 712.779C404.78 704.887 456.695 702.643 457.223 702.617C457.566 702.59 457.857 702.3 457.83 701.957C457.804 701.614 457.513 701.35 457.17 701.35C456.642 701.376 404.543 703.62 381 711.565C380.657 711.67 380.472 712.04 380.604 712.383C380.657 712.621 380.921 712.805 381.185 712.805Z" fill="#2E2E47"/>
<path d="M381.37 717.162C385.778 717.162 396.387 713.863 403.461 711.698C405.889 710.959 407.789 710.352 408.607 710.167C408.951 710.088 409.162 709.745 409.083 709.402C409.003 709.059 408.66 708.848 408.317 708.927C407.472 709.112 405.519 709.719 403.065 710.484C396.414 712.543 385.276 716.001 381.185 715.895C378.942 715.842 378.678 715.367 378.678 715.341C378.625 715.156 379.127 714.523 379.654 714.127C379.945 713.916 379.998 713.52 379.786 713.229C379.575 712.939 379.179 712.886 378.889 713.097C378.572 713.308 377.068 714.496 377.437 715.737C377.807 716.951 379.734 717.136 381.132 717.189C381.238 717.162 381.291 717.162 381.37 717.162Z" fill="#2E2E47"/>
<path d="M460.39 710.167C460.707 710.167 460.997 709.93 461.024 709.613C461.076 709.27 460.812 708.927 460.469 708.9C449.358 707.449 422.437 707.158 422.173 707.158C421.83 707.158 421.513 707.449 421.513 707.792C421.513 708.135 421.804 708.425 422.147 708.452C422.411 708.452 449.252 708.768 460.285 710.194C460.337 710.167 460.364 710.167 460.39 710.167Z" fill="#2E2E47"/>
<path d="M450.44 1086.6C450.783 1086.6 451.073 1086.31 451.073 1085.97C451.073 1085.73 451.021 1084.28 450.862 1081.06C450.44 1071 449.411 1047.43 449.12 1029.61C448.804 1010.21 441.625 947.388 438.59 920.57C438.062 915.872 437.666 912.414 437.481 910.751C436.346 900.087 432.414 797.275 432.836 773.756C433.232 751.056 427.848 713.362 427.795 712.993C427.742 712.65 427.426 712.386 427.056 712.438C426.713 712.491 426.449 712.808 426.502 713.177C426.555 713.547 431.939 751.161 431.543 773.756C431.147 797.301 435.053 900.245 436.214 910.909C436.399 912.599 436.795 916.03 437.323 920.755C440.384 947.573 447.537 1010.34 447.854 1029.69C448.144 1047.53 449.173 1071.11 449.595 1081.19C449.727 1083.96 449.807 1085.81 449.807 1086.05C449.78 1086.31 450.071 1086.6 450.44 1086.6Z" fill="#2E2E47"/>
<path d="M401.349 310.85C401.349 310.85 406.892 309.636 411.695 307.076C416.499 304.515 418.267 303.037 418.267 303.037C418.267 303.037 419.877 306.838 416.472 309.662C413.068 312.513 404.49 314.994 401.349 310.85Z" fill="white"/>
<path d="M480.793 465.661C480.845 465.661 480.898 465.661 480.951 465.635C481.294 465.556 481.505 465.213 481.426 464.87C480.925 462.837 469.259 415.14 463.637 406.535C458.068 398.035 443.473 373.83 443.315 373.593C443.13 373.276 442.734 373.197 442.444 373.381C442.127 373.566 442.048 373.962 442.233 374.252C442.391 374.49 456.986 398.721 462.581 407.247C468.098 415.668 480.08 464.685 480.186 465.186C480.238 465.45 480.502 465.661 480.793 465.661Z" fill="white"/>
<path d="M551.103 520.591C551.103 520.591 555.563 497.996 538.54 492.691C523.654 488.045 424.153 466.4 391.637 472.947C386.992 473.871 383.297 487.596 381.845 489.47C367.118 508.528 455.745 534.185 479.71 540.362C503.701 546.538 535.61 542.473 540.651 538.065C545.666 533.657 551.103 520.591 551.103 520.591Z" fill="#001A5B"/>
<path d="M356.218 373.91L356.033 507.922C356.033 507.922 400.056 532.708 390.185 568.606C385.883 576.024 317.711 578.082 307.998 550.921C281.315 476.405 356.218 373.91 356.218 373.91Z" fill="#001A5B"/>
<path d="M353.182 507.87C382.267 497.708 462.079 469.86 486.994 475.35C497.683 477.7 520.962 490.898 510.589 503.092C492.22 524.658 428.27 554.802 398.393 567.393C391.504 570.296 380.076 576.024 363.581 576.024C347.745 557.283 352.654 518.165 353.182 507.87Z" fill="#001A5B"/>
<path d="M480.792 477.066C480.792 477.066 494.675 471.127 502.857 471.285C511.065 471.444 531.598 478.676 526.98 483.982C522.361 489.287 507.845 486.225 503.015 487.677C498.185 489.129 485.252 486.384 480.792 483.348C476.332 480.286 474.59 478.782 480.792 477.066Z" fill="#FFA982"/>
<path d="M386.094 484.298C386.094 484.298 376.25 483.743 370.021 482.186C363.766 480.629 360.599 477.857 356.455 480.734C352.311 483.638 339.907 489.023 342.229 490.422C344.552 491.821 356.112 486.885 356.112 486.885C356.112 486.885 341.833 496.387 343.787 498.948C345.74 501.508 347.323 500.584 347.323 500.584C347.323 500.584 346.03 504.121 347.402 504.755C348.775 505.388 361.311 499.739 361.311 499.739C361.311 499.739 353.103 508.212 355.109 509.981C357.115 511.723 366.828 504.279 366.828 504.279C366.828 504.279 378.81 505.731 384.695 502.907C390.581 500.056 394.804 494.962 394.646 491.741C394.461 488.468 388.311 483.48 386.094 484.298Z" fill="#FFA982"/>
<path d="M355.927 571.299C360.045 571.299 364.32 571.114 368.675 570.771C384.194 569.504 400.241 565.967 413.86 560.82C440.807 550.658 472.373 533.685 484.962 524.182C489.185 521.015 493.461 518.27 497.261 515.868C504.704 511.116 510.616 507.368 511.223 503.198C512.094 497.153 508.056 490.29 507.871 490C507.687 489.683 507.291 489.604 507 489.789C506.684 489.973 506.605 490.369 506.789 490.66C506.842 490.739 510.775 497.417 509.956 503.013C509.429 506.603 503.754 510.219 496.575 514.786C492.775 517.214 488.446 519.959 484.197 523.179C471.687 532.603 440.253 549.496 413.438 559.632C384.326 570.613 347.983 573.147 325.021 565.809C324.678 565.703 324.309 565.888 324.203 566.231C324.098 566.574 324.282 566.944 324.626 567.049C333.494 569.847 344.156 571.299 355.927 571.299Z" fill="white"/>
<path d="M365.64 480.97C365.72 480.97 365.825 480.943 365.904 480.917C366.195 480.785 366.353 480.442 366.247 480.125C366.221 479.967 365.878 478.04 366.247 465.027C366.67 450.773 361.365 397.717 361.312 397.163C361.286 396.819 360.969 396.556 360.599 396.582C360.256 396.608 359.992 396.925 360.019 397.295C360.071 397.823 365.376 450.826 364.954 464.974C364.69 474.08 364.717 479.914 365.033 480.6C365.165 480.838 365.403 480.97 365.64 480.97Z" fill="white"/>
<path d="M320.534 558.734C322.091 558.734 323.833 557.256 325.363 554.564C329.454 547.331 344.102 527.218 349.117 522.889C348.721 523.654 348.14 524.631 347.613 525.608C345.316 529.673 341.833 535.796 340.328 541.392C340.249 541.735 340.434 542.079 340.777 542.184C341.12 542.263 341.463 542.079 341.569 541.735C343.02 536.298 346.451 530.253 348.721 526.267C350.885 522.493 351.387 521.595 350.701 520.988C350.12 520.487 349.302 521.12 348.695 521.569C343.865 525.317 328.557 546.249 324.229 553.93C322.566 556.86 320.929 557.758 320.032 557.335C318.712 556.728 317.683 552.848 320.534 545.009C324.149 535.136 341.569 519.167 349.011 512.357C352.733 508.952 352.733 508.925 352.68 508.477C352.654 508.133 352.337 507.843 351.994 507.896C351.756 507.922 351.545 508.054 351.466 508.265C351.202 508.609 349.777 509.902 348.14 511.407C340.645 518.296 323.067 534.397 319.346 544.56C316.337 552.743 317.261 557.441 319.504 558.497C319.821 558.655 320.164 558.734 320.534 558.734Z" fill="white"/>
<path d="M321.274 524.05C321.458 524.05 321.67 523.971 321.802 523.786C328.505 514.732 345.898 509.216 346.083 509.163C346.426 509.057 346.611 508.688 346.505 508.345C346.4 508.001 346.03 507.817 345.687 507.922C344.948 508.16 327.714 513.624 320.746 522.994C320.535 523.285 320.588 523.681 320.878 523.892C321.01 523.997 321.142 524.05 321.274 524.05Z" fill="white"/>
<path d="M395.411 492.877C395.543 492.877 395.649 492.851 395.755 492.771C402.96 488.099 434.842 480.972 453.898 476.696C461.473 475.007 467.438 473.661 469.444 473.027C476.174 470.916 482.693 475.139 482.772 475.165C483.062 475.35 483.458 475.271 483.669 474.981C483.854 474.69 483.775 474.294 483.485 474.083C483.194 473.898 476.385 469.464 469.074 471.787C467.121 472.394 461.156 473.74 453.634 475.429C433.259 479.996 402.458 486.885 395.068 491.663C394.778 491.848 394.672 492.244 394.884 492.56C395.016 492.771 395.2 492.877 395.411 492.877Z" fill="white"/>
<path d="M556.909 515.682C557.093 515.682 557.278 515.629 557.437 515.55C558.308 515.101 558.624 513.755 557.225 508.581C555.589 502.484 550.126 496.624 540.994 491.16C534.264 487.121 527.903 484.825 527.85 484.825C527.507 484.693 527.137 484.878 527.032 485.221C526.9 485.564 527.085 485.934 527.428 486.039C527.665 486.118 552.264 495.093 555.985 508.924C557.093 513.042 556.935 514.125 556.83 514.388C555.8 514.177 552.607 510.244 550.258 507.341C548.727 505.467 547.143 503.513 545.665 501.877C543.976 500.029 542.604 498.445 541.522 497.178C538.354 493.536 536.929 491.846 534.659 491.556C534.29 491.503 533.973 491.767 533.947 492.11C533.894 492.453 534.158 492.797 534.501 492.823C536.269 493.061 537.536 494.512 540.545 497.997C541.654 499.264 543.026 500.847 544.715 502.721C546.167 504.305 547.75 506.259 549.255 508.133C553.53 513.385 555.536 515.682 556.909 515.682Z" fill="white"/>
<path d="M162 166L50.5036 59.9964L-61 166V-46H162V166Z" fill="#1B47B6"/>
<path d="M90 130.5C90 110.342 73.6584 94 53.5 94C33.3416 94 17 110.342 17 130.5C17 150.658 33.3416 167 53.5 167C73.6584 167 90 150.658 90 130.5Z" fill="#5A82E8"/>
</g>
<defs>
<clipPath id="clip0_7448_72816">
<rect width="725" height="1024" fill="white"/>
</clipPath>
</defs>
</svg>
