<svg width="665" height="1024" viewBox="0 0 665 1024" fill="none" xmlns="http://www.w3.org/2000/svg">
<g clip-path="url(#clip0_7873_104205)">
<rect width="665" height="1024" fill="#0E369C"/>
<path d="M233.344 497.281C233.344 497.281 230.848 493.788 229.102 493.788C227.105 493.788 224.361 494.537 223.363 494.537C222.364 494.537 217.623 492.54 215.877 493.289C214.13 494.038 211.884 494.038 210.387 495.285C208.89 496.533 211.385 500.276 214.13 502.023C216.875 503.769 220.119 505.266 224.86 504.767C229.351 504.518 234.591 501.523 234.841 501.274C234.342 501.024 233.344 497.281 233.344 497.281Z" fill="#FFA982"/>
<path d="M234.341 482.562C234.341 482.562 240.829 491.545 241.578 495.538C242.326 499.53 234.84 504.521 230.848 505.519C226.856 506.517 229.6 499.031 230.848 497.784C232.096 496.287 226.107 489.05 226.107 488.551C226.357 488.052 228.353 479.069 234.341 482.562Z" fill="#FFA982"/>
<path d="M193.172 280.944C193.172 280.944 206.646 284.438 215.38 321.368C224.113 358.048 241.83 485.058 240.333 487.054C235.342 493.791 212.136 495.039 208.144 491.296C204.401 487.303 174.208 286.434 193.172 280.944Z" fill="#FFB300"/>
<path d="M452.181 252.245C452.181 252.245 452.93 258.234 454.427 264.222C455.674 268.714 457.671 272.706 457.421 274.703C457.172 275.95 448.688 278.196 443.697 277.697C441.202 277.447 441.701 270.71 441.451 268.215C441.202 265.47 441.701 262.975 441.701 262.975L452.181 252.245Z" fill="#FFD3B5"/>
<path d="M441.452 262.723L442.7 261.476L452.182 257.982C452.182 257.982 449.686 263.222 444.945 265.468C443.448 266.217 442.2 266.466 441.202 266.716C440.953 264.47 441.452 262.723 441.452 262.723Z" fill="#001A5B"/>
<path d="M463.657 236.025C463.657 236.025 464.656 239.768 462.909 245.507C461.162 251.247 457.17 255.738 451.68 255.489C446.191 255.239 448.686 237.523 451.93 235.526C455.174 233.78 461.911 234.279 463.657 236.025Z" fill="#001A5B"/>
<path d="M443.696 224.297C437.707 223.299 431.718 227.041 429.722 232.781L427.476 238.769C426.478 241.514 424.981 244.259 423.983 248.75C422.985 253.242 423.234 261.227 431.219 263.972C439.204 266.716 448.936 262.724 451.681 258.731C454.425 254.739 454.675 252.493 454.675 252.493C454.675 252.493 456.172 255.737 459.166 250.497C460.913 247.253 462.909 244.009 460.165 243.011C457.42 241.764 457.17 243.011 456.422 242.512C455.673 242.013 455.923 231.533 448.187 225.794C447.189 225.045 445.442 224.546 443.696 224.297Z" fill="#FFD3B5"/>
<path d="M432.717 247.752C432.967 247.752 432.967 247.752 433.216 247.752C433.466 247.752 433.466 247.502 433.466 247.253C433.466 247.003 433.216 247.003 432.967 247.003C432.717 247.003 431.969 246.753 431.22 246.254C430.971 246.005 429.972 245.007 430.472 243.759C430.721 242.761 431.719 242.012 432.717 241.264C434.214 240.016 435.961 238.769 434.214 236.273C432.967 234.277 428.974 234.776 428.725 234.776C428.475 234.776 428.475 235.026 428.475 235.275C428.475 235.525 428.725 235.525 428.974 235.525C429.972 235.275 432.717 235.275 433.715 236.523C434.963 238.519 433.965 239.517 432.468 240.515C431.47 241.264 430.471 242.012 429.972 243.51C429.723 244.757 429.972 246.005 430.971 246.754C431.47 247.253 432.218 247.752 432.717 247.752Z" fill="#001A5B"/>
<path d="M446.191 240.515H446.441C446.69 240.266 446.69 240.016 446.441 240.016C446.441 240.016 444.445 238.02 442.698 237.271C440.951 236.523 439.454 237.271 439.454 237.271C439.205 237.271 439.205 237.521 439.205 237.77C439.205 238.02 439.454 238.02 439.704 238.02C439.704 238.02 440.951 237.271 442.199 238.02C443.696 238.768 445.692 240.515 445.692 240.515C445.942 240.266 445.942 240.515 446.191 240.515Z" fill="#001A5B"/>
<path d="M457.421 238.522C457.421 238.522 456.672 244.76 455.175 245.508C453.678 246.257 453.678 245.508 452.68 245.259C451.682 245.009 451.682 244.261 451.682 243.512C451.682 242.763 449.686 236.276 449.935 235.527C450.185 234.529 456.922 238.272 457.421 238.522Z" fill="#001A5B"/>
<path d="M444.197 242.512C444.197 242.512 444.447 242.512 444.447 242.262C444.696 242.013 444.447 241.763 444.447 241.763C444.197 241.763 440.953 238.769 438.957 240.516C438.708 240.516 438.708 240.765 438.957 241.015C438.957 241.264 439.207 241.264 439.456 241.015C441.203 240.017 443.948 242.512 444.197 242.512Z" fill="#001A5B"/>
<path d="M432.467 239.769H432.716C432.966 239.52 432.966 239.27 432.716 239.27C432.716 239.27 430.72 237.024 428.474 237.773C428.225 237.773 428.225 238.022 428.225 238.272C428.225 238.522 428.474 238.521 428.724 238.521C430.47 238.022 431.968 239.769 431.968 239.769C432.467 239.769 432.467 239.769 432.467 239.769Z" fill="#001A5B"/>
<path d="M439.455 247.754C439.455 247.754 444.944 248.752 446.192 247.005C447.439 245.258 441.451 244.26 438.456 244.759C435.462 245.508 437.957 247.754 439.455 247.754Z" fill="#FFA982"/>
<path d="M425.482 244.01C425.482 244.01 428.227 246.006 429.225 244.509C430.223 243.012 427.229 241.016 425.732 241.016C423.985 241.265 424.734 243.76 425.482 244.01Z" fill="#FFA982"/>
<path d="M436.712 250.249C436.712 250.249 428.977 249.999 426.481 249.001C426.481 249.001 426.232 251.746 428.478 253.492C430.474 255.239 434.466 253.992 436.712 250.249Z" fill="white"/>
<path d="M450.184 237.023C450.184 237.023 449.186 234.528 445.194 232.781C441.201 231.034 439.205 231.783 437.458 231.533C435.712 231.284 432.717 229.787 431.719 228.789C430.721 227.79 431.969 222.051 435.213 218.558C438.706 215.065 442.449 213.318 446.691 213.567C450.683 213.817 455.424 220.055 457.42 221.802C459.417 223.549 466.403 223.798 466.903 226.543C467.402 229.288 468.649 237.273 459.666 238.021C455.923 238.021 450.184 237.023 450.184 237.023Z" fill="#001A5B"/>
<path d="M547.497 337.089C547.497 337.089 505.078 378.51 512.314 395.228C519.301 411.947 519.8 416.438 533.274 415.939C546.499 415.44 602.643 368.03 594.908 351.062C586.673 333.595 556.73 328.106 547.497 337.089Z" fill="#001A5B"/>
<path d="M438.204 280.941C421.735 278.196 391.792 367.776 383.058 380.752C352.366 400.714 338.393 407.202 317.433 418.43C311.943 421.425 317.433 446.627 319.179 449.621C323.172 456.608 327.414 451.118 350.869 446.876C377.319 442.135 405.017 436.147 418.99 418.181C435.459 397.47 436.707 378.007 443.693 359.043C458.166 318.37 462.158 284.933 438.204 280.941Z" fill="#001A5B"/>
<path d="M328.411 435.401C328.411 435.401 309.197 442.887 305.704 443.635C302.21 444.384 289.734 438.395 293.227 432.906C296.721 427.416 320.925 425.17 324.917 425.669C328.91 426.418 328.411 435.401 328.411 435.401Z" fill="#FFD3B5"/>
<path d="M285.743 423.674C295.225 424.422 308.949 432.407 311.694 434.902C314.439 437.398 317.184 438.645 317.184 441.39C317.184 444.135 311.444 445.133 309.947 446.131C308.45 447.129 308.201 447.878 307.203 447.878C306.204 447.878 303.709 449.125 303.21 449.624C302.461 450.123 298.719 450.622 297.72 450.622C296.473 450.622 287.49 445.881 283.497 443.137C279.505 440.392 275.762 437.647 276.76 431.908C277.259 428.165 281.751 423.424 285.743 423.674Z" fill="#FFA982"/>
<path d="M323.675 420.179C323.675 420.179 315.939 418.932 309.202 419.93C304.211 420.679 297.973 420.429 293.981 425.42C289.988 430.41 283.002 433.903 287.493 435.151C291.985 436.399 300.968 429.662 300.968 429.662C300.968 429.662 318.684 433.155 325.172 432.406C331.659 431.658 324.673 419.68 323.675 420.179Z" fill="#FFD3B5"/>
<path d="M287.991 450.621C287.242 449.873 286.743 448.376 286.743 448.376C286.743 448.376 285.246 448.625 283.998 447.377C282.75 446.13 282.251 444.383 282.251 444.383C282.251 444.383 280.006 443.884 278.259 441.389C276.762 438.893 280.255 437.895 280.255 437.895C280.255 437.895 284.497 436.149 284.996 437.895C285.495 439.642 283.25 441.638 283.25 441.638H286.244C286.244 441.638 289.488 441.638 290.735 442.886C291.983 443.884 290.735 444.882 290.735 444.882C290.735 444.882 292.732 444.882 293.73 446.379C294.728 447.876 293.73 448.376 293.73 448.376C293.73 448.376 296.724 448.376 297.223 450.372C297.722 452.368 292.981 453.616 291.983 453.117C290.985 452.617 290.735 451.619 290.735 451.619C290.735 451.619 288.989 451.37 287.991 450.621Z" fill="#FFD3B5"/>
<path d="M576.439 765.025C572.197 764.027 565.46 761.282 565.46 761.532C565.71 760.783 555.479 725.101 552.984 712.125C563.713 712.874 572.197 709.88 581.679 710.129C584.424 722.605 586.919 759.286 587.169 760.783C584.424 762.779 579.434 765.774 576.439 765.025Z" fill="#EAE6E4"/>
<path d="M525.538 779.498C524.789 777.002 536.517 774.507 546.747 770.764C557.727 767.021 561.969 761.781 562.218 760.534C562.218 760.284 562.967 756.042 568.207 757.789C573.696 759.535 572.199 764.027 576.441 765.025C579.435 765.774 584.426 762.779 587.171 761.033C587.919 766.023 590.664 779.747 587.919 784.239L576.192 784.987C576.192 784.987 575.693 780.496 574.694 780.745C570.951 781.494 573.197 784.738 569.205 784.488C564.963 783.989 528.282 787.981 525.538 779.498Z" fill="#001A5B"/>
<path d="M469.397 765.025C465.155 764.027 458.418 761.282 458.418 761.532C458.667 760.783 453.677 725.101 451.431 712.125C462.161 712.874 470.645 709.88 480.127 710.129C482.871 722.605 479.877 759.286 480.127 760.783C477.382 762.779 472.391 765.774 469.397 765.025Z" fill="#EAE6E4"/>
<path d="M418.496 779.498C417.747 777.002 429.475 774.507 439.705 770.764C450.685 767.021 454.927 761.781 455.176 760.534C455.176 760.284 455.925 756.042 461.165 757.789C466.654 759.535 465.157 764.027 469.399 765.025C472.393 765.774 477.384 762.779 480.129 761.033C480.877 766.023 483.622 779.747 480.877 784.239L469.15 784.987C469.15 784.987 468.651 780.496 467.652 780.745C463.91 781.494 466.155 784.738 462.163 784.488C458.17 783.989 421.24 787.981 418.496 779.498Z" fill="#001A5B"/>
<path d="M432.466 395.976L526.538 386.993C526.538 386.993 534.024 425.67 542.009 470.335C547.997 503.273 585.426 692.414 591.415 749.556C591.415 749.556 589.918 753.299 579.438 754.048C565.714 755.046 560.474 751.303 560.474 751.303C554.485 733.087 532.527 665.715 524.292 637.269C523.544 634.275 518.054 630.781 517.305 627.787C516.307 624.543 520.05 621.798 519.052 618.554C508.322 580.876 497.094 540.702 487.113 509.012L485.366 752.8C485.366 752.8 482.372 755.794 470.644 755.794C456.421 755.794 452.428 752.8 452.428 752.8C449.684 699.651 430.969 539.454 430.47 522.736C427.476 434.653 432.466 395.976 432.466 395.976Z" fill="white"/>
<path d="M429.223 366.031C428.724 356.798 426.977 326.855 426.727 319.12C425.979 296.413 429.223 284.934 434.712 279.694C436.459 277.948 438.206 276.95 439.453 274.454L445.941 278.447L456.671 269.464C457.419 270.712 460.663 271.71 462.659 272.957C463.657 272.708 469.646 278.447 475.635 283.437C491.355 296.413 515.06 378.757 518.054 383.997C543.257 427.415 434.463 415.437 434.463 415.437C434.463 415.437 430.221 381.751 429.223 366.031Z" fill="white"/>
<path d="M216.127 750.054C216.127 750.054 243.076 765.026 242.826 767.771C242.577 774.258 232.097 776.504 217.624 775.755C203.152 775.256 191.923 769.268 191.923 769.268L188.929 766.273L188.679 770.016L177.201 767.022C177.201 767.022 175.205 758.289 176.951 750.304C177.45 748.557 180.195 744.315 183.439 743.317C190.675 740.822 202.653 743.317 216.127 750.054Z" fill="#001A5B"/>
<path d="M203.9 745.812C203.9 745.812 198.91 744.066 196.914 746.312C194.917 748.308 187.182 753.548 186.184 751.552C182.94 745.314 180.445 745.813 180.694 745.563C180.694 745.313 177.95 728.595 183.19 727.348C188.18 726.1 202.403 720.61 203.401 722.606C203.9 724.104 202.902 745.313 203.9 745.812Z" fill="#EAE6E4"/>
<path d="M46.1983 751.802C46.1983 751.802 17.7522 768.022 18.0018 774.509C18.2513 780.997 30.7276 780.498 44.9507 778.003C59.4233 775.508 70.1529 768.022 70.1529 768.022L73.1472 764.528L73.3968 768.271L84.6255 763.78C84.6255 763.78 86.6217 754.547 84.6255 746.812C84.1264 745.065 81.1321 741.322 78.1378 740.823C71.151 739.077 59.4233 743.319 46.1983 751.802Z" fill="#001A5B"/>
<path d="M58.1738 745.815C58.1738 745.815 63.1644 743.569 65.1606 745.316C67.1568 747.062 75.1417 751.304 75.8903 749.059C78.8846 742.321 81.3799 742.571 81.3799 742.072C81.3799 741.822 83.8751 724.605 78.6351 724.106C73.6445 723.607 62.4158 727.35 61.4177 729.595C60.9186 731.592 59.1719 745.066 58.1738 745.815Z" fill="#EAE6E4"/>
<path d="M97.8507 445.632L73.1474 605.579C73.1474 605.579 66.1606 624.044 64.6635 630.282C61.6692 643.257 58.9244 682.184 58.9244 682.184L48.4442 738.826C48.4442 738.826 54.9319 743.567 68.1569 742.819C73.3969 742.569 88.8677 738.826 88.8677 738.826L106.085 678.191C106.085 678.191 153.246 534.214 162.478 507.265C162.977 535.462 170.713 663.719 170.463 675.696C169.964 691.416 175.703 738.826 175.703 738.826H205.896L217.624 606.827L223.113 450.123L165.223 448.127L97.8507 445.632Z" fill="#001A5B"/>
<path d="M148.755 249.004C144.763 250.252 138.525 253.496 136.528 260.982C134.532 268.467 139.024 277.7 139.024 277.7L174.706 268.966C174.706 268.966 171.213 255.991 166.721 253.496C161.98 250.501 156.241 246.509 148.755 249.004Z" fill="#FFB300"/>
<path d="M149.003 253.246C157.487 251.249 164.224 251.499 171.211 255.491C208.39 276.452 208.889 305.896 218.372 386.244C223.861 433.155 227.854 482.312 227.854 482.312L172.958 484.058L168.466 455.363L160.98 482.312C160.98 482.312 120.307 478.818 103.09 477.321C92.1107 476.323 81.1315 466.092 81.1315 466.092C81.1315 466.092 86.3716 436.399 91.8612 409.2C104.837 347.068 103.339 264.225 149.003 253.246Z" fill="#FFB300"/>
<path d="M146.257 255.241C146.257 255.241 145.009 259.483 147.504 267.967C151.497 281.941 172.956 373.767 172.956 373.767C172.956 373.767 174.453 270.463 170.71 263.476C166.968 256.739 152.745 248.005 146.257 255.241Z" fill="white"/>
<path d="M165.224 364.786C165.224 364.786 165.474 364.785 165.474 364.536C165.474 364.286 165.474 364.037 165.474 364.037C164.725 363.288 159.984 349.814 153.496 330.85C147.757 313.383 143.016 297.912 143.016 296.415C143.016 295.916 143.266 295.667 143.266 295.667C143.765 295.167 145.511 295.666 146.759 296.166C148.506 296.665 150.252 297.164 150.752 296.415C151.251 295.417 149.753 294.169 147.009 292.423C144.014 290.426 140.022 287.432 138.525 284.438C136.279 278.948 139.772 257.988 139.772 257.738C139.772 257.489 139.772 257.239 139.523 257.239C139.273 257.239 139.024 257.239 139.024 257.489C138.774 258.237 135.281 278.948 137.776 284.438C139.273 287.682 143.266 290.676 146.51 292.672C148.007 293.67 150.253 295.417 150.003 295.667C149.753 296.166 148.007 295.666 147.009 295.167C145.262 294.668 143.765 294.169 142.767 294.668C142.517 294.918 142.268 295.417 142.268 295.916C142.268 297.663 147.757 315.13 152.997 330.85C156.99 343.576 163.727 364.037 165.224 364.786C165.224 364.786 164.975 364.786 165.224 364.786Z" fill="#001A5B"/>
<path d="M175.453 365.035C175.702 365.035 175.702 364.786 175.952 364.786C175.952 364.536 177.698 347.069 179.445 329.602C180.443 319.372 181.192 311.137 181.691 305.398C182.689 294.17 182.689 293.92 182.44 293.92C182.19 293.67 181.691 293.67 180.693 293.92C179.944 294.17 178.697 294.419 178.198 294.17C177.948 294.17 177.948 293.92 177.948 293.67C177.698 292.423 178.447 287.931 179.196 283.689C179.695 280.695 180.194 277.701 180.443 275.455C181.192 269.716 172.957 256.491 172.458 255.992C172.458 255.742 172.209 255.742 171.959 255.992C171.71 255.992 171.71 256.241 171.959 256.491C171.959 256.74 180.443 269.965 179.695 275.455C179.445 277.701 178.946 280.695 178.447 283.689C177.698 288.181 176.95 292.423 177.199 293.92C177.199 294.419 177.449 294.669 177.948 294.918C178.697 295.417 180.194 295.168 181.192 294.918C181.441 294.918 181.94 294.669 181.94 294.669C181.94 298.411 177.699 342.079 175.203 365.035C175.203 364.786 175.203 365.035 175.453 365.035Z" fill="#001A5B"/>
<path d="M161.731 270.462C161.731 270.462 159.485 266.469 159.735 263.724C159.984 260.98 165.723 259.482 167.22 262.726C167.22 262.726 167.47 266.22 166.721 268.216C166.222 269.963 165.474 270.462 165.474 270.462L172.959 309.388C173.209 339.581 172.71 373.766 172.71 373.766C172.71 373.766 165.973 344.322 159.235 316.375L161.731 270.462Z" fill="#001A5B"/>
<path d="M174.206 668.952C174.455 668.952 174.455 668.952 174.455 668.703C174.455 668.453 180.444 643.002 182.19 634.019C182.19 633.769 182.19 633.52 181.941 633.52C181.691 633.52 181.442 633.52 181.442 633.769C179.695 642.752 173.707 668.204 173.707 668.453C173.707 668.703 173.956 668.952 174.206 668.952Z" fill="white"/>
<path d="M429.223 366.033C428.724 356.8 426.978 326.857 426.728 319.122C425.979 296.415 429.223 284.936 434.713 279.696C434.962 279.447 438.955 275.205 439.204 274.955L457.17 369.027L460.664 271.462C462.161 271.961 477.632 271.212 486.864 277.201C504.081 288.43 506.826 294.668 520.8 348.815C522.047 353.806 544.505 462.101 544.505 462.101C544.505 462.101 539.514 466.842 507.575 469.836C484.119 472.082 471.892 470.335 471.892 470.335L463.159 451.371L458.667 470.834C458.667 470.834 451.93 470.834 441.201 470.834C437.458 470.834 427.227 466.343 427.227 466.343C427.227 466.343 430.221 381.753 429.223 366.033Z" fill="#001A5B"/>
<path d="M75.1414 605.326C75.3909 605.326 75.3909 605.326 75.3909 605.077C76.1395 603.829 93.8558 575.882 95.6025 571.89C95.6025 571.64 95.6026 571.391 95.3531 571.391C95.1035 571.391 94.854 571.391 94.854 571.64C93.1073 575.633 74.8918 604.578 74.6423 604.827C74.8918 604.827 74.8918 605.077 75.1414 605.326Z" fill="white"/>
<path d="M71.1533 711.377C71.4028 711.377 71.6523 711.127 71.6523 710.878C71.6523 709.88 62.9189 686.424 61.1722 681.683C61.1722 681.434 60.9226 681.434 60.6731 681.434C60.4236 681.434 60.4236 681.683 60.4236 681.933C64.4161 693.161 70.6542 710.129 70.9037 710.878C70.9037 711.127 70.9037 711.377 71.1533 711.377Z" fill="white"/>
<path d="M77.3897 615.811C77.6392 615.811 77.6392 615.811 77.3897 615.811C77.6392 615.811 83.8774 611.569 90.1156 607.077C102.592 598.094 102.342 596.597 102.342 596.098C102.342 595.848 102.093 595.599 101.594 595.349C96.8528 594.601 75.8925 609.573 75.1439 610.072C74.8944 610.072 74.8944 610.321 75.1439 610.571C75.1439 610.82 75.3934 610.82 75.643 610.571C81.6316 606.329 98.1005 595.349 101.594 595.849C101.843 595.849 101.843 595.849 101.843 595.849C102.093 597.096 93.1099 604.332 77.6392 614.563C77.3897 614.563 77.3897 614.813 77.6392 615.062C77.1402 615.561 77.3897 615.811 77.3897 615.811Z" fill="white"/>
<path d="M162.226 507.764C162.476 507.764 162.476 507.514 162.476 507.514C165.969 486.554 176.699 484.308 176.699 484.308C176.948 484.308 176.948 484.059 176.948 483.809C176.948 483.56 176.699 483.56 176.449 483.56C175.95 483.56 164.971 485.556 161.478 507.265C161.977 507.514 161.977 507.514 162.226 507.764Z" fill="white"/>
<path d="M488.363 278.697C488.363 278.697 583.183 323.612 592.166 340.58C601.149 357.547 590.669 377.01 563.221 373.268C535.773 369.525 482.124 309.638 478.132 298.908C474.139 287.929 472.642 273.956 488.363 278.697Z" fill="#001A5B"/>
<path d="M451.929 279.945C451.929 279.945 453.177 282.939 450.931 283.937L457.668 345.072L456.919 369.276L450.182 334.342L445.691 284.686C445.691 284.686 443.944 283.688 444.194 280.694C444.194 277.949 446.689 277.2 447.936 277.2C448.935 277.699 451.929 279.446 451.929 279.945Z" fill="#FFB300"/>
<path d="M186.185 400.967C199.41 408.952 216.877 416.687 232.597 422.925C234.593 437.647 236.589 451.371 237.837 462.35C210.638 451.122 166.472 423.674 152.748 405.209C129.792 374.018 127.296 325.11 127.296 325.11C127.296 325.11 156.242 383.001 186.185 400.967Z" fill="#001A5B"/>
<path d="M446.188 275.203L455.171 267.468L462.657 273.207L454.922 283.188L446.438 278.197L440.948 283.188L437.455 276.201L441.198 271.959L446.188 275.203Z" fill="white"/>
<path d="M177.945 214.07C177.945 214.07 179.442 213.071 180.44 214.07C181.439 215.068 181.688 221.306 180.44 221.555C178.943 221.805 176.698 215.816 177.945 214.07Z" fill="#FFA982"/>
<path d="M143.513 251.499C148.753 245.261 149.252 228.044 149.252 228.044C149.252 228.044 157.986 230.29 162.727 240.021C163.226 241.019 163.725 247.507 167.967 251.499C169.215 252.498 169.464 254.244 168.965 255.741C168.466 256.74 167.717 257.987 166.47 258.237C153.744 261.98 143.513 251.499 143.513 251.499Z" fill="#FFA982"/>
<path d="M165.472 247.506C164.224 248.754 158.735 248.504 155.241 246.259C150.251 243.264 150.5 234.281 150.5 234.281C150.5 234.281 151.997 237.026 155.491 239.272C157.487 240.519 160.731 241.517 163.475 242.266C163.975 243.763 164.474 245.51 165.472 247.506Z" fill="#001A5B"/>
<path d="M143.263 218.311C144.261 217.812 145.509 218.81 146.257 217.313C146.507 217.063 146.257 216.315 146.008 215.816C146.008 215.816 143.013 208.08 147.505 202.341C151.996 196.602 166.718 194.606 171.958 199.596C176.949 204.587 177.199 211.823 178.696 215.566C179.444 217.313 182.938 227.793 183.187 230.288C183.437 236.027 177.947 242.016 168.964 244.012C160.231 246.008 153.992 242.016 151.747 238.772C150.749 237.275 150 232.534 149.002 228.042C147.255 228.292 144.76 228.542 143.512 227.044C141.516 224.799 140.268 219.559 143.263 218.311Z" fill="#FFA982"/>
<path d="M159.479 224.05C159.479 224.05 163.471 221.555 164.968 222.553C166.465 223.551 161.974 226.046 159.728 226.545C157.233 227.045 158.481 224.549 159.479 224.05Z" fill="#F2836D"/>
<path d="M151.497 238.524C150.499 237.027 150 233.534 149.251 229.791C149.501 227.545 150 225.798 149.751 224.8C149.501 222.804 147.505 219.56 149.751 219.311C151.996 219.061 156.488 228.543 157.735 229.541C158.983 230.539 160.48 231.787 162.227 230.539C163.974 229.292 163.474 227.295 164.223 226.547C164.972 225.798 169.214 225.299 170.212 225.299C171.21 225.299 171.21 225.05 172.457 224.301C173.955 223.553 178.197 226.547 178.696 225.549C179.444 224.301 177.947 219.56 178.945 218.562C179.195 218.312 179.195 218.313 179.195 218.313C180.442 222.055 182.688 228.543 182.688 230.29C182.938 236.029 177.448 242.018 168.465 244.014C159.981 245.76 153.743 242.018 151.497 238.524Z" fill="#9C6F43"/>
<path d="M157.485 214.818C157.735 214.818 157.735 214.818 157.485 214.818C157.735 214.818 160.479 213.571 162.476 213.571C162.725 213.571 162.975 213.321 162.975 213.321C162.975 213.072 162.725 212.822 162.725 212.822C160.729 212.572 157.735 214.07 157.485 214.07C157.236 214.07 157.236 214.319 157.236 214.569C157.236 214.818 157.485 214.818 157.485 214.818Z" fill="#001A5B"/>
<path d="M158.235 219.061C158.484 219.061 158.984 218.811 160.231 218.062C161.728 217.064 164.224 217.314 164.224 217.314C164.473 217.314 164.723 217.064 164.723 217.064C164.723 216.815 164.473 216.565 164.473 216.565C164.473 216.565 161.978 216.316 159.982 217.563C158.984 218.312 158.484 218.312 158.484 218.312C158.235 218.312 158.235 218.561 158.235 218.811C157.736 218.811 157.985 219.061 158.235 219.061C158.235 219.061 157.985 219.061 158.235 219.061Z" fill="#001A5B"/>
<path d="M162.974 217.065C162.974 217.065 164.221 217.315 163.972 219.061C163.722 220.808 162.225 221.058 161.477 220.309C160.728 219.56 160.478 218.562 160.728 218.063C160.978 217.564 161.726 216.816 162.974 217.065Z" fill="#001A5B"/>
<path d="M176.451 217.064C176.7 217.064 176.7 217.064 176.451 217.064C176.7 216.814 176.95 216.814 176.7 216.565C176.7 216.315 176.201 215.816 174.704 215.566C172.708 215.067 171.211 216.066 171.211 216.066C170.961 216.066 170.961 216.315 171.211 216.565C171.211 216.814 171.46 216.814 171.71 216.565C171.71 216.565 172.957 215.816 174.704 216.315C175.952 216.565 176.201 217.064 176.201 217.064H176.451Z" fill="#001A5B"/>
<path d="M173.703 216.064C173.703 216.064 172.705 216.563 173.454 218.061C174.203 219.558 175.45 219.308 175.7 218.31C176.199 217.562 175.949 216.563 175.45 216.064C175.45 215.815 174.702 215.316 173.703 216.064Z" fill="#001A5B"/>
<path d="M170.461 225.802C172.457 225.802 172.956 224.554 172.956 224.554C173.455 223.805 173.455 223.057 173.206 222.558C172.956 221.809 171.709 221.31 170.96 221.061C170.711 221.061 170.212 220.811 170.212 220.811C169.463 220.312 168.964 218.815 169.213 217.068C169.463 215.072 169.463 214.074 169.712 213.575C169.712 213.325 169.962 213.325 170.711 213.076C170.96 213.076 170.96 213.076 171.21 213.076C172.956 212.826 176.45 212.577 176.45 212.577C176.699 212.577 176.699 212.327 176.699 212.078C176.699 211.828 176.45 211.828 176.2 211.828C175.951 211.828 172.457 211.828 170.711 212.327C170.461 212.327 170.461 212.327 170.212 212.327C168.465 212.577 168.465 212.826 168.215 216.819C167.966 218.565 168.465 220.562 169.463 221.31C169.712 221.56 170.212 221.56 170.461 221.809C171.21 222.059 171.958 222.308 172.208 222.807C172.457 223.057 172.208 223.556 171.958 224.304C171.958 224.304 171.21 225.802 168.714 225.053C168.465 225.053 168.215 225.053 168.215 225.303C168.215 225.552 168.215 225.802 168.465 225.802C169.463 225.552 169.962 225.802 170.461 225.802Z" fill="#001A5B"/>
<path d="M174.454 219.56C174.454 219.56 178.945 218.313 179.943 219.56C181.191 220.808 176.2 222.305 173.955 222.056C171.709 221.806 173.456 219.81 174.454 219.56Z" fill="#F2836D"/>
<path d="M167.218 199.846C167.218 199.846 167.717 201.343 164.223 201.593C160.98 201.843 151.747 208.58 150.25 210.326C148.753 212.073 149.252 216.565 149.501 217.313C149.501 218.062 151.248 219.808 150 220.308C148.753 221.056 147.006 219.559 146.258 219.06C145.758 218.561 144.511 218.062 143.762 218.311C143.014 218.561 142.265 216.315 142.016 215.067C141.516 213.82 139.52 207.582 139.52 206.584C139.77 203.839 140.518 196.602 144.76 194.856C149.002 192.86 153.993 188.368 161.728 190.614C164.473 191.362 168.216 199.098 167.218 199.846Z" fill="#9C6F43"/>
<path d="M162.475 194.107C162.475 194.107 166.967 192.36 169.462 193.857C171.708 195.105 175.45 200.844 175.95 203.339C176.199 205.835 177.696 208.08 177.696 209.078C177.696 210.077 179.193 214.568 179.443 216.065C179.692 217.562 180.441 218.81 179.692 218.311C178.944 217.812 176.449 209.827 175.7 209.078C174.951 208.08 171.708 202.092 170.46 200.595C168.963 199.097 167.216 198.848 166.717 199.596C165.719 200.345 161.227 194.356 162.475 194.107Z" fill="#9C6F43"/>
<path d="M166.218 228.792C166.218 228.792 170.211 229.54 174.453 227.045C174.453 227.045 175.95 229.79 172.956 231.536C169.712 233.034 166.218 228.792 166.218 228.792Z" fill="white"/>
<path d="M221.616 482.811L228.104 482.562V482.063C228.104 481.564 225.109 440.891 223.113 422.176L222.614 417.934C220.119 395.726 214.38 343.575 210.637 321.866C206.644 298.91 203.4 291.923 203.4 291.673C203.4 291.424 203.151 291.424 202.901 291.424C202.652 291.424 202.652 291.673 202.652 291.923C202.652 291.923 205.896 299.159 209.888 321.866C213.631 343.575 219.37 395.477 221.865 417.685L222.364 421.927C224.361 439.643 227.105 477.322 227.355 481.564L221.616 481.813C221.366 481.813 221.366 482.063 221.366 482.312C221.366 482.562 221.366 482.811 221.616 482.811Z" fill="#001A5B"/>
<path d="M145.01 246.008C144.261 246.507 141.017 255.241 141.017 257.237C141.017 258.984 152.246 266.969 153.993 266.969C155.739 266.969 164.473 261.978 164.473 261.978C164.473 261.978 172.957 266.719 173.705 265.721C174.454 264.723 172.208 255.99 170.96 254.492C169.463 252.247 167.217 249.751 167.217 249.751L163.475 258.734C163.475 258.734 157.236 255.74 152.246 252.746C147.754 249.502 146.008 245.509 145.01 246.008Z" fill="white"/>
<path d="M127.793 268.716C127.793 268.716 168.715 345.071 185.184 358.546C200.155 370.773 280.254 408.202 283.248 409.948C287.739 412.693 283.498 435.899 273.017 445.381C262.288 454.614 255.55 449.873 248.065 446.878C240.579 443.884 171.46 417.933 150.749 387.491C139.271 370.772 124.549 347.317 118.81 320.118C111.823 289.427 127.793 268.716 127.793 268.716Z" fill="#FFB300"/>
<path d="M429.473 401.964C429.722 401.964 429.972 401.714 429.972 401.465C429.972 400.966 428.974 341.329 426.977 331.098C426.478 328.353 425.979 325.609 425.48 323.113C423.484 312.883 422.735 309.14 421.737 308.641C421.488 308.641 421.488 308.641 421.238 308.641C420.739 309.14 420.989 310.886 422.236 320.119C422.985 324.361 423.734 329.85 423.484 330.599C423.484 330.849 423.484 331.098 423.733 331.098C423.983 331.098 424.233 331.098 424.233 330.849C424.732 330.1 424.233 327.106 422.985 319.869C422.486 316.127 421.737 311.136 421.737 309.639C422.486 311.385 423.734 317.624 424.732 323.113C425.231 325.858 425.73 328.353 426.229 331.098C428.225 341.329 429.223 400.716 429.223 401.215C428.974 401.964 429.223 401.964 429.473 401.964Z" fill="white"/>
<path d="M168.471 455.611C168.72 455.611 168.97 455.361 168.97 455.111C168.97 454.862 168.221 419.679 168.97 412.941C168.97 412.692 168.72 412.442 168.72 412.442C168.471 412.442 168.221 412.692 168.221 412.692C167.473 419.429 168.221 453.614 168.221 455.111C168.221 455.361 168.221 455.611 168.471 455.611Z" fill="#001A5B"/>
<path d="M377.57 419.931C378.069 419.682 378.818 419.432 380.315 402.963C380.814 397.973 381.063 392.733 381.313 389.738C382.561 396.226 386.304 411.447 389.547 417.436C389.797 418.184 390.296 418.684 390.795 418.434C391.294 418.184 392.043 417.935 387.801 399.22C385.804 389.988 383.559 381.005 383.309 380.755C383.309 380.506 383.06 380.506 382.81 380.506C382.561 380.506 382.561 380.755 382.561 381.005C385.804 393.98 390.545 414.691 390.296 417.685C390.296 417.685 390.046 417.436 390.046 417.186C385.804 409.95 381.313 387.243 381.313 386.994C381.313 386.744 381.063 386.744 380.814 386.744C380.564 386.744 380.564 386.994 380.564 386.994C379.816 398.472 378.568 416.687 377.57 419.183C376.821 417.186 375.823 405.958 375.574 395.477C375.574 395.228 375.324 395.228 375.075 395.228C374.825 395.228 374.825 395.477 374.825 395.727C374.825 395.727 375.075 401.716 375.574 407.455C376.322 419.432 377.071 419.931 377.57 420.181C377.321 419.931 377.321 419.931 377.57 419.931Z" fill="white"/>
<path d="M518.304 347.316C518.304 347.316 518.554 347.316 518.304 347.316C518.554 347.066 518.803 347.066 518.554 346.816C518.554 346.567 516.558 342.824 512.815 339.331C512.565 339.081 511.817 338.582 511.068 337.833C490.607 319.119 479.378 305.395 477.631 296.661C476.134 289.425 477.132 284.934 477.881 282.189C478.879 279.444 480.127 278.446 480.127 278.446C480.376 278.446 480.376 278.196 480.127 277.947C480.127 277.697 479.877 277.697 479.628 277.947C479.378 278.196 473.889 282.438 476.633 296.911C479.129 310.136 502.584 331.346 510.319 338.332C511.068 339.081 511.567 339.58 512.066 339.83C515.809 343.323 517.805 347.066 517.805 347.066C518.055 347.066 518.304 347.316 518.304 347.316Z" fill="white"/>
<path d="M569.957 373.516C577.443 373.516 583.93 372.018 585.428 369.523C585.927 369.024 586.176 368.525 586.426 368.275C586.675 368.026 586.925 367.776 586.925 367.776C586.925 367.527 586.925 367.527 586.675 367.277C586.426 367.277 586.176 367.277 585.927 367.527C584.929 368.026 581.685 369.273 573.7 368.774C559.477 367.776 550.743 363.784 550.494 363.784C550.244 363.784 549.995 363.784 549.995 364.033C549.995 364.283 549.995 364.532 550.244 364.532C550.244 364.532 559.227 368.525 573.7 369.773C579.439 370.272 582.932 369.523 584.929 369.024V369.274C582.184 373.266 563.22 374.763 550.743 369.024C538.017 363.285 531.031 355.3 530.781 355.05C530.532 354.801 530.282 354.801 530.282 355.05C530.033 355.3 530.033 355.55 530.282 355.55C530.282 355.55 537.768 363.784 550.494 369.523C556.482 372.517 563.719 373.516 569.957 373.516Z" fill="white"/>
<path d="M564.217 378.508C564.466 378.508 564.466 378.258 564.716 378.258C564.716 378.008 564.466 377.759 564.466 377.759C550.243 377.26 537.018 364.035 537.018 364.035C536.769 363.785 536.519 363.785 536.519 364.035C536.27 364.284 536.27 364.534 536.519 364.534C536.27 364.783 549.495 378.008 564.217 378.508Z" fill="white"/>
<path d="M531.279 400.964C531.528 400.964 531.778 400.715 531.528 400.465L524.043 364.284C524.043 364.034 523.793 364.034 523.544 364.034C523.294 364.034 523.294 364.284 523.294 364.533L530.78 400.715C531.029 400.715 531.029 400.964 531.279 400.964Z" fill="white"/>
<path d="M462.658 451.619C462.908 451.619 463.157 451.37 463.157 451.12C463.157 450.621 455.921 388.739 457.418 369.275C457.418 369.026 457.169 368.776 457.169 368.776C456.919 368.776 456.67 369.026 456.67 369.026C455.172 388.489 462.409 450.372 462.409 450.871C462.409 451.619 462.409 451.619 462.658 451.619Z" fill="white"/>
<path d="M226.358 382.248C226.607 382.248 226.607 382.248 226.607 381.999C226.607 381.749 226.607 381.5 226.358 381.5C226.108 381.25 200.158 367.526 191.175 362.286C182.192 356.797 174.955 346.317 174.706 346.067C174.706 345.818 174.456 345.818 174.207 346.067C173.957 346.067 173.957 346.316 174.207 346.566C174.207 346.566 181.693 357.545 190.925 363.035C200.158 368.275 225.859 381.999 226.358 382.248Z" fill="#001A5B"/>
<path d="M487.115 509.259C487.365 509.259 487.614 509.009 487.614 508.76C487.614 508.76 487.115 504.767 485.369 500.525C483.123 494.786 479.879 491.293 475.637 490.045C471.145 488.798 462.163 487.8 453.429 487.3C447.69 487.051 437.958 486.801 436.96 488.548C436.96 488.798 436.711 489.047 436.96 489.297C437.21 489.796 437.958 491.043 456.174 492.79C465.157 493.788 474.14 494.287 474.14 494.287C474.389 494.287 474.639 494.038 474.639 494.038C474.639 493.788 474.389 493.539 474.389 493.539C451.682 492.041 438.707 490.045 437.709 489.047C439.456 487.051 465.157 488.299 475.637 491.043C480.378 492.291 483.372 497.032 484.869 501.024C486.616 505.266 486.866 509.259 487.115 509.259C486.616 509.009 486.866 509.259 487.115 509.259Z" fill="#001A5B"/>
<path d="M493.352 492.292L530.781 486.303C531.03 486.303 531.03 486.054 531.03 485.804C531.03 485.555 530.781 485.555 530.531 485.555L493.102 491.543C492.853 491.543 492.853 491.793 492.853 492.042C493.102 492.292 493.102 492.292 493.352 492.292Z" fill="#001A5B"/>
<path d="M554.983 667.209C555.233 667.209 555.483 666.959 555.732 666.959C555.982 666.46 556.73 665.462 540.012 649.742C531.777 642.006 523.293 634.521 523.293 634.271C523.044 634.022 522.794 634.022 522.794 634.271C522.545 634.521 522.545 634.77 522.794 634.77C535.021 645.749 554.484 663.965 555.233 666.46C554.983 666.46 553.736 666.211 547.997 660.721C544.753 657.477 541.758 654.233 541.758 654.233C541.509 653.984 541.259 653.984 541.259 654.233C541.01 654.483 541.01 654.732 541.259 654.732C542.757 656.728 552.488 667.209 554.983 667.209Z" fill="#001A5B"/>
<path d="M550.241 629.533C552.487 629.533 552.736 629.284 552.736 629.034C552.736 628.535 552.237 628.286 551.738 628.286C547.496 626.789 522.045 620.55 520.797 620.301C520.547 620.301 520.298 620.301 520.298 620.55C520.298 620.8 520.298 621.049 520.547 621.049C520.797 621.049 546.249 627.537 551.239 629.034C549.243 629.034 544.003 628.785 539.012 628.286C538.763 628.286 538.513 628.535 538.513 628.535C538.513 628.785 538.763 629.034 538.763 629.034C538.763 629.034 542.007 629.284 545.5 629.533C547.746 629.533 549.243 629.533 550.241 629.533Z" fill="#001A5B"/>
<path d="M444.695 501.523L478.88 498.529C479.13 498.529 479.13 498.279 479.13 498.03C479.13 497.78 478.88 497.78 478.631 497.78L444.446 500.775C444.196 500.775 444.196 501.024 444.196 501.274C444.446 501.523 444.695 501.523 444.695 501.523Z" fill="#001A5B"/>
<path d="M453.427 439.644C453.427 440.642 454.176 441.39 454.675 441.39C455.174 441.39 455.923 440.392 455.673 439.394C455.673 438.396 454.925 437.647 454.425 437.647C453.926 437.897 453.427 438.646 453.427 439.644Z" fill="white"/>
<path d="M451.431 409.449C451.431 410.447 452.179 411.196 452.678 411.196C453.427 411.196 453.926 410.198 453.676 409.2C453.676 408.202 452.928 407.453 452.429 407.453C451.93 407.453 451.431 408.451 451.431 409.449Z" fill="white"/>
<path d="M449.683 379.007C449.683 380.005 450.432 380.754 450.931 380.754C451.68 380.754 452.179 379.756 451.929 378.757C451.929 377.759 451.181 377.011 450.682 377.011C450.183 377.26 449.683 378.009 449.683 379.007Z" fill="white"/>
<path d="M107.584 424.169L154.495 420.426C154.495 420.426 154.744 420.426 154.744 420.176V419.927L153.497 412.94C153.497 412.691 153.247 412.69 152.997 412.69L106.585 416.184C106.585 416.184 106.336 416.184 106.336 416.433V416.683L107.084 423.919C107.334 423.919 107.334 424.169 107.584 424.169ZM154.245 419.677L108.083 423.42L107.334 416.932L152.997 413.439L154.245 419.677Z" fill="#001A5B"/>
<g opacity="0.67">
<path d="M613.48 39.9072H440.439V116H613.48V39.9072Z" fill="#082C87"/>
<path d="M681.292 -66.2861H508.754V39.3765H681.292V-66.2861Z" fill="#0B2F89"/>
<path d="M-61.8215 1.32227L-28.7077 58.6607L4.40594 115.95H-61.8215H-128L-94.9351 58.6607L-61.8215 1.32227Z" fill="#2652C0"/>
<path d="M298.084 115.949H260.966C260.966 97.0482 245.581 81.7124 226.729 81.7124C207.827 81.7124 192.492 97.097 192.492 115.949H155.373C155.373 106.328 157.278 96.9994 160.99 88.1593C164.604 79.6611 169.732 72.042 176.277 65.4974C182.821 58.9528 190.44 53.8246 198.939 50.2104C207.73 46.4985 217.107 44.5938 226.729 44.5938C236.35 44.5938 245.679 46.4985 254.519 50.2104C263.017 53.8246 270.636 58.9528 277.181 65.4974C283.725 72.042 288.854 79.6611 292.468 88.1593C296.18 96.9994 298.084 106.328 298.084 115.949Z" fill="#5E83E5"/>
<path d="M298.034 -103.196H226.728V44.8385H298.034V-103.196Z" fill="#3E65CB"/>
<path d="M226.728 -103.196H155.421V44.8385H226.728V-103.196Z" fill="#1641AC"/>
<path d="M226.727 8.20805C247.389 8.20805 264.139 -8.5417 264.139 -29.2036C264.139 -49.8655 247.389 -66.6152 226.727 -66.6152C206.065 -66.6152 189.315 -49.8655 189.315 -29.2036C189.315 -8.5417 206.065 8.20805 226.727 8.20805Z" fill="#5E83E6"/>
<path d="M-19.7217 51.1865C-6.69337 51.1865 3.86819 40.625 3.86819 27.5967C3.86819 14.5684 -6.69337 4.00684 -19.7217 4.00684C-32.75 4.00684 -43.3115 14.5684 -43.3115 27.5967C-43.3115 40.625 -32.75 51.1865 -19.7217 51.1865Z" fill="#5E83E5"/>
<path d="M79.864 115.998C96.5877 115.998 110.145 102.441 110.145 85.7175C110.145 68.9938 96.5877 55.4365 79.864 55.4365C63.1403 55.4365 49.583 68.9938 49.583 85.7175C49.583 102.441 63.1403 115.998 79.864 115.998Z" fill="#2652C0"/>
<path d="M298.083 115.949H441.673L298.083 -56.7988V115.949Z" fill="#1641AC"/>
<path d="M297.325 -58.2607L440.438 115.614V-58.2607H297.325Z" fill="#2652C0"/>
<path d="M155.551 115.614L79.9575 29.345L4.41309 115.614V-56.9238H155.551V115.614Z" fill="#032374"/>
</g>
<g opacity="0.67">
<path d="M219.322 900.901L182.456 964.737L145.59 1028.52H219.322H293L256.188 964.737L219.322 900.901Z" fill="#2652C0"/>
<path d="M172.452 956.416C157.947 956.416 146.189 944.657 146.189 930.153C146.189 915.648 157.947 903.89 172.452 903.89C186.956 903.89 198.715 915.648 198.715 930.153C198.715 944.657 186.956 956.416 172.452 956.416Z" fill="#5E83E5"/>
<path d="M61.5806 1028.57C42.9617 1028.57 27.8681 1013.48 27.8681 994.86C27.8681 976.241 42.9617 961.147 61.5806 961.147C80.1994 961.147 95.293 976.241 95.293 994.86C95.293 1013.48 80.1994 1028.57 61.5806 1028.57Z" fill="#2652C0"/>
<path d="M-22.6826 1028.14L61.4769 932.1L145.582 1028.14V836.055H-22.6826V1028.14Z" fill="#032374"/>
</g>
</g>
<defs>
<clipPath id="clip0_7873_104205">
<rect width="665" height="1024" fill="white"/>
</clipPath>
</defs>
</svg>
